<svg width="98" height="98" viewBox="0 0 98 98" fill="none" xmlns="http://www.w3.org/2000/svg">
<circle opacity="0.8" cx="49" cy="49" r="49" fill="#E36837"/>
<mask id="mask0" mask-type="alpha" maskUnits="userSpaceOnUse" x="0" y="0" width="98" height="98">
<circle cx="49" cy="49" r="49" fill="white"/>
</mask>
<g mask="url(#mask0)">
<path d="M64.3145 49.9941C64.3145 49.5371 64.1387 49.1152 63.7871 48.7812L52.8008 37.8125C52.4141 37.4434 52.0273 37.2852 51.6055 37.2852C50.709 37.2852 50.0234 37.9355 50.0234 38.832C50.0234 39.2715 50.1816 39.6758 50.4805 39.957L54.207 43.7539L59.5332 48.623L55.5781 48.377H34.8359C33.9043 48.377 33.2363 49.0449 33.2363 49.9941C33.2363 50.9258 33.9043 51.5938 34.8359 51.5938H55.5781L59.5508 51.3477L54.207 56.2168L50.4805 60.0137C50.1992 60.2949 50.0234 60.6992 50.0234 61.1387C50.0234 62.0352 50.709 62.6855 51.6055 62.6855C52.0273 62.6855 52.3965 62.5273 52.7656 62.1934L63.7871 51.1895C64.1387 50.8555 64.3145 50.4336 64.3145 49.9941Z" fill="white"/>
</g>
</svg>
