<svg width="11" height="11" viewBox="0 0 11 11" fill="none" xmlns="http://www.w3.org/2000/svg">
<path d="M10.8398 7.57324L10.833 0.696289C10.833 0.306641 10.5801 0.0332031 10.1699 0.0332031H3.29297C2.91016 0.0332031 2.65039 0.327148 2.65039 0.655273C2.65039 0.983398 2.94434 1.26367 3.26562 1.26367H5.64453L8.98047 1.1543L7.70898 2.26855L0.93457 9.05664C0.811523 9.17969 0.743164 9.33691 0.743164 9.4873C0.743164 9.81543 1.03711 10.123 1.37891 10.123C1.53613 10.123 1.68652 10.0684 1.80957 9.93848L8.59766 3.15723L9.72559 1.87891L9.60254 5.07129V7.60059C9.60254 7.92188 9.88281 8.22266 10.2178 8.22266C10.5459 8.22266 10.8398 7.94238 10.8398 7.57324Z" fill="#AAB2BD"/>
</svg>
