<svg width="13" height="21" viewBox="0 0 13 21" fill="none" xmlns="http://www.w3.org/2000/svg">
<path fill-rule="evenodd" clip-rule="evenodd" d="M9.7278 2.78887C9.7278 -0.953886 3.11724 -0.905279 3.11724 2.78887C3.11724 6.48301 9.7278 6.53161 9.7278 2.78887ZM6.44912 4.36684C4.60205 4.36684 4.59592 1.26379 6.44912 1.26379C8.30233 1.26379 8.2962 4.36684 6.44912 4.36684ZM10.4569 7.81008C8.02593 5.78425 3.45749 6.41615 1.03361 7.81008L1.71411 9.99739C4.08937 8.60347 8.80427 8.06879 8.60985 11.6657C6.51974 11.5685 -0.236417 12.0109 0.00637924 17.0125C0.249415 22.0191 7.0058 21.8246 8.85288 19.1026L9.14452 20.6909H12.4498C12.129 18.3439 12.1545 16.302 12.1766 14.5412C12.2147 11.5004 12.2423 9.2979 10.4569 7.81008ZM8.65846 16.0403V14.0961C5.5476 14.0961 3.16585 14.6794 3.5061 17.0612C3.84635 19.4428 8.65846 18.9082 8.65846 16.0403Z" fill="#AAB2BD"/>
</svg>
