<svg display="none" xmlns="http://www.w3.org/2000/svg">
  <svg>
    <symbol id="logo" viewBox="0 0 61 64">
      <g>
      <path fill-rule="evenodd" clip-rule="evenodd" d="M57.2919 7.76302C56.043 7.84236 55.074 8.40676 55.074 9.09242L54.9323 14.1494H54.4677V14.8498H54.9119L54.7759 19.7186H54.1651V20.6014H54.751L54.598 26.0505C54.3407 26.0131 54.0585 25.9916 53.7605 25.9916L53.6313 25.9961L54.156 9.97529C54.2716 8.11776 54.8904 7.78569 56.1654 7.26662C56.3592 7.18729 56.5326 7.14762 56.6799 7.14762C57.2239 7.14762 57.2919 7.75169 57.2919 7.75282V7.76302ZM45.4996 21.4911H45.0791V22.1258H45.4815L45.3579 26.5367H44.8049V27.3357H45.3353L45.197 32.2725C44.9635 32.2385 44.7074 32.2192 44.4377 32.2192C44.296 32.2192 44.1589 32.2249 44.0263 32.2351L44.4966 17.9064C44.6031 16.1735 45.2389 15.9151 46.2907 15.4867C46.4618 15.4176 46.6148 15.3824 46.744 15.3824C47.0534 15.3824 47.1803 15.6046 47.2325 15.7576C46.3054 15.9117 45.6277 16.3673 45.6277 16.9113L45.4996 21.4911ZM36.9758 38.4537L37.4031 25.3954C37.4983 23.8518 38.0649 23.6229 39.0022 23.241C39.1529 23.1798 39.2867 23.1492 39.3989 23.1492C39.7955 23.1492 39.8397 23.5844 39.8397 23.5844L39.8409 23.6728C38.9376 23.7861 38.2633 24.2145 38.2633 24.729L38.1477 28.834H37.7714V29.4029H38.1318L38.0207 33.3548H37.5255V34.0711H38.0003L37.8768 38.4945C37.6683 38.4639 37.4382 38.4469 37.1968 38.4469L36.9758 38.4537ZM2.77407 14.6197L6.77021 16.9691V27.891C6.77021 37.6694 8.12227 39.7344 15.0447 43.8042C15.7836 44.2382 19.9463 46.6862 22.7559 48.3386C26.9594 50.8093 30.22 53.7038 30.254 61.8876L2.77407 45.7297V14.6197ZM61.6303 38.2848H60.9356L60.6704 28.8272H61.3277V27.7641H60.6409L60.4392 20.6014H61.0251V19.7186H60.4143L60.2783 14.8498H60.7225V14.1494H60.2579L60.1162 9.09242C60.1162 8.40676 59.1472 7.84236 57.8983 7.76302V7.75282C57.8983 7.42869 57.6093 6.54129 56.6799 6.54129C56.4533 6.54129 56.2039 6.59682 55.9376 6.70449C54.5413 7.27229 53.6857 7.77322 53.5508 9.94582L53.0238 26.0392C52.2203 26.1412 51.6457 26.403 51.6457 26.7124L51.4179 31.9416H50.6325V32.6431H51.3873L51.1447 38.1806H50.5724V39.0612H51.1062L50.8421 45.0882C50.2403 44.0082 49.0877 43.2772 47.764 43.2772C47.2087 43.2772 46.6851 43.4086 46.2181 43.6376L46.3099 41.5602H45.8011V40.7204H46.3462L46.5774 35.4436H45.8589V34.776H46.6057L46.8245 29.7928C46.8245 29.4131 47.7255 29.1048 48.8384 29.1048C49.1229 29.1048 49.3915 29.1252 49.6363 29.1615L49.7825 23.9686H49.2249V23.1276H49.8063L49.9366 18.4878H49.5127V17.8202H49.9559L49.9944 16.4172C49.6385 15.9933 48.8418 15.6964 47.9113 15.6964L47.8445 15.7009C47.7595 15.336 47.458 14.7761 46.744 14.7761C46.5366 14.7761 46.3077 14.826 46.0629 14.9257C44.7924 15.4414 44.0138 15.8981 43.8903 17.8769L43.4177 32.3212C42.8816 32.4368 42.5223 32.6397 42.5223 32.872L42.3161 37.6094H41.6043V38.2452H42.2877L42.069 43.2602H41.5499V44.0592H42.0339L41.8684 47.8241C41.0003 46.888 39.7638 46.2998 38.3857 46.2998C38.1941 46.2998 38.0049 46.3145 37.819 46.3372V45.8011H38.3109L38.5183 41.0456H37.8711V40.4438H38.5455L38.7415 35.9524C38.7415 35.7598 39.0045 35.5898 39.4091 35.4764L39.6505 35.4186L39.6788 35.413L39.9179 35.3744L40.0301 35.362L40.2194 35.3438C40.3293 35.337 40.4415 35.3325 40.5571 35.3325C40.8121 35.3325 41.0558 35.3506 41.2768 35.3835L41.4083 30.7028H40.9051V29.9458H41.4287L41.5465 25.7649H41.1646V25.162H41.5635L41.5987 23.8926C41.2791 23.7544 40.8835 23.6637 40.4461 23.649V23.5844C40.4461 23.3056 40.1979 22.5428 39.3989 22.5428C39.2085 22.5428 38.9977 22.5893 38.7744 22.68C37.6184 23.1492 36.9089 23.564 36.7979 25.366L36.3672 38.5228C35.8402 38.6226 35.4809 38.8118 35.4809 39.0317L35.2951 43.2772H34.6581V43.8461H35.2701L35.1047 47.6178C34.5482 48.1494 34.1209 48.8135 33.8727 49.5604C33.4659 49.09 32.9921 48.6798 32.4674 48.3398L32.5422 46.6466H31.9653V46.1105H32.566L32.7405 42.1121C32.7405 41.8072 33.4636 41.5602 34.3567 41.5602C34.5845 41.5602 34.8009 41.5772 34.997 41.6055L35.1149 37.4382H34.6661V36.7639H35.133L35.2373 33.0409H34.8984V32.5048H35.2531L35.32 30.3685C34.0325 32.1297 32.4368 35.4934 31.5256 38.4718V24.3641C31.5256 18.0129 29.9967 14.818 25.3931 12.2318C22.4306 10.568 16.7458 8.28322 14.4225 6.99122C10.3787 4.74269 8.70027 3.07782 7.48647 0.687622L6.77021 0.793022V14.4293L0.584473 10.7913V46.982L31.1289 64.942V64.9408L61.1883 47.262L60.9775 39.7865L60.9707 39.5281H61.6303V38.2848Z" fill="#FFFFFE"/>
      </g>
    </symbol>

    <symbol id="logo-description" viewBox="0 0 216 43">
      <g>
       <path fill-rule="evenodd" clip-rule="evenodd" d="M5.11108 39.0606C4.71668 39.9775 4.08202 40.696 2.99515 40.696H1.95248V39.3292H2.67102C3.27735 39.3292 3.61622 39.0606 3.84175 38.5246L4.19535 37.7063L0.935883 30.6536H2.54408L4.94222 36.0278L7.10008 30.6536H8.70828L5.11108 39.0606Z" fill="#FFFFFE"/>
      <path fill-rule="evenodd" clip-rule="evenodd" d="M15.0821 40.696V36.7611C14.5041 36.8744 13.3753 37.0852 12.3882 37.0852C11.0622 37.0852 9.77814 36.395 9.77814 34.618V30.6536H11.3161V34.2508C11.3161 35.4079 12.0357 35.7184 12.8529 35.7184C13.5159 35.7184 14.5597 35.5484 15.0821 35.4351V30.6536H16.6053V40.696H15.0821Z" fill="#FFFFFE"/>
      <path fill-rule="evenodd" clip-rule="evenodd" d="M19.2267 40.696V30.6536H25.6584V32.0215H20.7499V34.9557H24.924V36.31H20.7499V39.3292H25.6584V40.696H19.2267Z" fill="#FFFFFE"/>
      <path fill-rule="evenodd" clip-rule="evenodd" d="M31.5382 35.9712H29.2534V39.3292H31.5382C32.6386 39.3292 33.2869 38.6934 33.2869 37.6496C33.2869 36.6206 32.6386 35.9712 31.5382 35.9712ZM31.6368 40.696H27.7302V30.6536H34.1902V32.0215H29.2534V34.6032H31.6368C33.5838 34.6032 34.8101 35.8442 34.8101 37.6496C34.8101 39.455 33.5963 40.696 31.6368 40.696Z" fill="#FFFFFE"/>
      <path fill-rule="evenodd" clip-rule="evenodd" d="M42.5519 40.696V36.31H38.49V40.696H36.9668V30.6536H38.49V34.9557H42.5519V30.6536H44.0898V40.696H42.5519Z" fill="#FFFFFE"/>
      <path fill-rule="evenodd" clip-rule="evenodd" d="M54.9483 40.696H56.4703V30.6536H54.9483V40.696ZM50.4206 35.9712H48.2197V39.3292H50.4206C51.5347 39.3292 52.1977 38.6934 52.1977 37.6496C52.1977 36.6206 51.5347 35.9712 50.4206 35.9712ZM50.5475 40.696H46.6965V30.6536H48.2197V34.6032H50.5475C52.4651 34.6032 53.7345 35.8442 53.7345 37.6496C53.7345 39.455 52.4515 40.696 50.5475 40.696Z" fill="#FFFFFE"/>
      <path fill-rule="evenodd" clip-rule="evenodd" d="M62.8023 30.0619C61.6599 30.0619 60.7 29.5678 60.6297 28.1715H61.7721C61.8288 28.8198 62.2096 29.1303 62.8023 29.1303C63.395 29.1303 63.7747 28.8198 63.8325 28.1715H64.9738C64.9035 29.5678 63.9447 30.0619 62.8023 30.0619ZM64.9738 40.696V33.4052L60.4744 40.696H59.0929V30.6535H60.6161V37.9329L65.1018 30.6535H66.497V40.696H64.9738Z" fill="#FFFFFE"/>
      <path fill-rule="evenodd" clip-rule="evenodd" d="M79.3161 42.9536V40.696H72.5036V30.6536H74.0268V39.3292H78.0887V30.6536H79.6119V39.3292H80.7973V42.9536H79.3161Z" fill="#FFFFFE"/>
      <path fill-rule="evenodd" clip-rule="evenodd" d="M82.5869 40.696V30.6536H89.0186V32.0215H84.1101V34.9557H88.2842V36.31H84.1101V39.3292H89.0186V40.696H82.5869Z" fill="#FFFFFE"/>
      <path fill-rule="evenodd" clip-rule="evenodd" d="M96.6754 40.696V36.31H92.6135V40.696H91.0892V30.6536H92.6135V34.9557H96.6754V30.6536H98.2133V40.696H96.6754Z" fill="#FFFFFE"/>
      <path fill-rule="evenodd" clip-rule="evenodd" d="M104.219 32.0215V40.696H102.696V32.0215H99.9314V30.6536H106.983V32.0215H104.219Z" fill="#FFFFFE"/>
      <path fill-rule="evenodd" clip-rule="evenodd" d="M112.426 32.0215H110.24V35.3796H112.426C113.527 35.3796 114.218 34.7302 114.218 33.7011C114.218 32.6562 113.527 32.0215 112.426 32.0215ZM112.526 36.7475H110.24V40.696H108.717V30.6536H112.526C114.429 30.6536 115.741 31.8957 115.741 33.7011C115.741 35.5065 114.429 36.7475 112.526 36.7475Z" fill="#FFFFFE"/>
      <path fill-rule="evenodd" clip-rule="evenodd" d="M5.87948 11.8345V15.6176C7.04002 15.6176 8.28328 15.6176 9.41435 15.6176C10.7947 15.6176 11.4589 14.6509 11.4589 13.7113C11.4589 12.7174 10.7675 11.8345 9.41435 11.8345H5.87948ZM5.87948 7.63667H9.44155C14.1097 7.63667 16.3741 10.2875 16.3741 13.6841C16.3741 17.1091 14.0553 20.0365 9.44155 20.0365H0.935883V0.7052H14.8271V5.12407H5.87948V7.63667Z" fill="#FFFFFE"/>
      <path fill-rule="evenodd" clip-rule="evenodd" d="M24.7665 13.4087H28.7706L26.7544 8.74052L24.7665 13.4087ZM23.1368 17.6338L22.0306 20.0365H16.7584V19.3463L25.6233 0.510254H27.9421L36.7243 19.3463V20.0365H31.5053L30.372 17.6338H23.1368Z" fill="#FFFFFE"/>
      <path fill-rule="evenodd" clip-rule="evenodd" d="M38.4889 0.7052H43.5424V15.4793H48.2095V0.7052H53.263V15.4793H57.9312V0.7052H62.9848V20.0365H38.4889V0.7052Z" fill="#FFFFFE"/>
      <path fill-rule="evenodd" clip-rule="evenodd" d="M78.168 20.0365V12.3037H72.1761V20.0365H67.1214V0.7052H72.1761V7.69107H78.168V0.7052H83.2227V20.0365H78.168Z" fill="#FFFFFE"/>
      <path fill-rule="evenodd" clip-rule="evenodd" d="M99.4294 5.09573H92.414V7.85767H98.8774V12.2765H92.414V15.4238H99.6787V20.0365H87.3616V0.7052H99.4294V5.09573Z" fill="#FFFFFE"/>
      <path fill-rule="evenodd" clip-rule="evenodd" d="M115.446 6.77987V13.9335C117.488 13.7952 119.56 13.105 119.56 10.3431C119.56 7.58 117.6 6.86374 115.446 6.77987ZM110.889 13.9335V6.77987C108.735 6.86374 106.773 7.58 106.773 10.3431C106.773 13.105 108.872 13.7952 110.889 13.9335ZM110.832 18.1857C105.834 18.0203 101.72 15.5065 101.72 10.3431C101.72 5.17847 105.834 2.63754 110.805 2.44487V0.621338H115.527V2.44487C120.665 2.63754 124.614 4.90194 124.614 10.3431C124.614 15.7831 120.498 18.0203 115.5 18.1857V20.0909H110.832V18.1857Z" fill="#FFFFFE"/>
      <path fill-rule="evenodd" clip-rule="evenodd" d="M125.768 5.12407V0.7052H140.13V5.12407H135.407V20.0365H130.519V5.12407H125.768Z" fill="#FFFFFE"/>
      <path fill-rule="evenodd" clip-rule="evenodd" d="M154.793 5.09573H147.777V7.85767H154.241V12.2765H147.777V15.4238H155.04V20.0365H142.723V0.7052H154.793V5.09573Z" fill="#FFFFFE"/>
      <path fill-rule="evenodd" clip-rule="evenodd" d="M166.056 5.97973L169.177 0.7052H174.617V1.4498L169.04 9.79L175.28 19.3179V20.0365H169.646L166.084 13.989H165.919L162.384 20.0365H156.694V19.3179L162.963 9.79L157.356 1.4498V0.7052H162.826L165.946 5.97973H166.056Z" fill="#FFFFFE"/>
      <path fill-rule="evenodd" clip-rule="evenodd" d="M179.089 20.0909H177.596V0.705205H182.651V10.1493L192.732 0.621338H194.305V20.0365H189.252V10.0665L179.089 20.0909Z" fill="#FFFFFE"/>
      <path fill-rule="evenodd" clip-rule="evenodd" d="M215.567 0.64856H217.362V20.0365H212.307V11.116L208.192 15.4238H207.613L203.497 11.116V20.0365H198.444V0.64856H200.238L207.915 9.01709L215.567 0.64856Z" fill="#FFFFFE"/>
      </g>
    </symbol>
    <symbol id="language" viewBox="0 0 33 33">
    <g>
    <circle opacity="0.1" cx="16.5" cy="16.5" r="16.5" fill="#AAB2BD"/>
    <path d="M7.80615 22H13.7349V20.6226H9.44385V18.0137H13.5V16.687H9.44385V14.2178H13.7349V12.8403H7.80615V22ZM15.8067 22H17.4381V15.5571H17.4698L21.9449 22H23.4049V12.8403H21.7799V19.2578H21.7418L17.2794 12.8403H15.8067V22Z" fill="white"/>
    </g>
    </symbol>
    <symbol id="login" viewBox="0 0 33 33">
    <g>
    <circle opacity="0.16" cx="16.5" cy="16.5" r="16.5" fill="#AAB2BD"/>
      <path fill-rule="evenodd" clip-rule="evenodd" d="M22.5332 24.3989C22.222 24.7237 21.7484 24.886 21.1124 24.886H11.8876C11.2584 24.886 10.7865 24.7237 10.4719 24.3989C10.1573 24.0742 10 23.5701 10 22.8868V15.7627C10 15.0861 10.1844 14.5872 10.5531 14.2658C10.7989 14.0516 11.1041 13.9087 11.4687 13.8373L11.5624 13.8231L11.5628 11.3888C11.5628 10.4822 11.6998 9.6923 11.9738 9.01913C12.2479 8.34595 12.6183 7.7861 13.0851 7.33958C13.5519 6.89305 14.0796 6.55816 14.6682 6.33489C15.2568 6.11163 15.8691 6 16.5051 6C17.1343 6 17.7432 6.11163 18.3318 6.33489C18.9204 6.55816 19.4498 6.89305 19.92 7.33958C20.3902 7.7861 20.7606 8.34595 21.0312 9.01913C21.3018 9.6923 21.4372 10.4822 21.4372 11.3888L21.4365 13.7798L21.4745 13.783C21.9313 13.8349 22.2842 13.9908 22.5332 14.2506C22.8444 14.5753 23 15.0794 23 15.7627V22.8868C23 23.5701 22.8444 24.0742 22.5332 24.3989ZM13.2678 11.1959L13.2676 13.7816L19.7322 13.7677L19.7322 11.1959C19.7322 10.4247 19.5851 9.77348 19.2908 9.24239C18.9965 8.71129 18.6041 8.31043 18.1136 8.03981C17.6231 7.76919 17.0869 7.63388 16.5051 7.63388C15.9232 7.63388 15.3871 7.76919 14.8966 8.03981C14.4061 8.31043 14.012 8.71129 13.7143 9.24239C13.4166 9.77348 13.2678 10.4247 13.2678 11.1959Z" fill="#1A1919"/>
    </g>
    </symbol>

    <symbol id="search" viewBox="0 0 48 48">
    <g>
    <circle opacity="0.16" cx="24" cy="24" r="24" fill="#AAB2BD"/>
    <path fill-rule="evenodd" clip-rule="evenodd" d="M33.3203 34.0176C33.1016 34.1465 32.8516 34.2109 32.5703 34.2109C32.3828 34.2109 32.1992 34.1758 32.0195 34.1055L31.8884 34.0461C31.761 33.9802 31.6445 33.8945 31.5391 33.7891L26.4893 28.7502L26.2873 28.8871C25.8731 29.1546 25.4342 29.3882 24.9707 29.5879C23.9277 30.0371 22.8125 30.2617 21.625 30.2617C20.4375 30.2617 19.3223 30.0371 18.2793 29.5879C17.2363 29.1387 16.3184 28.5176 15.5254 27.7246C14.7324 26.9316 14.1133 26.0156 13.668 24.9766C13.2227 23.9375 13 22.8242 13 21.6367C13 20.4414 13.2227 19.3242 13.668 18.2852C14.1133 17.2461 14.7344 16.3301 15.5312 15.5371C16.3281 14.7441 17.2461 14.123 18.2852 13.6738C19.3242 13.2246 20.4375 13 21.625 13C22.8125 13 23.9277 13.2246 24.9707 13.6738C26.0137 14.123 26.9316 14.7441 27.7246 15.5371C28.5176 16.3301 29.1367 17.248 29.582 18.291C30.0273 19.334 30.25 20.4492 30.25 21.6367C30.25 22.8242 30.0273 23.9375 29.582 24.9766L29.4272 25.3184C29.2121 25.768 28.9627 26.1934 28.6789 26.5944L28.5943 26.7092L33.6016 31.7266C33.7422 31.8672 33.8457 32.0273 33.9121 32.207C33.9785 32.3867 34.0117 32.5703 34.0117 32.7578C34.0117 33.0312 33.9512 33.2773 33.8301 33.4961C33.709 33.7148 33.5391 33.8887 33.3203 34.0176ZM19.0996 27.6543C19.8926 27.9941 20.7344 28.1641 21.625 28.1641C22.5234 28.1641 23.3672 27.9941 24.1562 27.6543C24.9453 27.3145 25.6387 26.8418 26.2363 26.2363C26.834 25.6309 27.3027 24.9355 27.6426 24.1504C27.9824 23.3652 28.1523 22.5273 28.1523 21.6367C28.1523 20.7383 27.9824 19.8945 27.6426 19.1055C27.3027 18.3164 26.834 17.623 26.2363 17.0254C25.6387 16.4277 24.9453 15.957 24.1562 15.6133C23.3672 15.2695 22.5234 15.0977 21.625 15.0977C20.7344 15.0977 19.8926 15.2695 19.0996 15.6133C18.3066 15.957 17.6113 16.4277 17.0137 17.0254C16.416 17.623 15.9473 18.3164 15.6074 19.1055C15.2676 19.8945 15.0977 20.7383 15.0977 21.6367C15.0977 22.5273 15.2676 23.3652 15.6074 24.1504C15.9473 24.9355 16.416 25.6309 17.0137 26.2363C17.6113 26.8418 18.3066 27.3145 19.0996 27.6543Z" fill="#1A1919"/>
    </g>
    </symbol>
    <symbol id="menu" viewBox="0 0 48 48">
    <g>
      <circle opacity="0.16" cx="24" cy="24" r="24" fill="#AAB2BD"/>
      <rect x="12" y="20" width="24" height="2.5" rx="1.25" fill="#1A1919"/>
      <rect x="12" y="25" width="16" height="2.5" rx="1.25" fill="#1A1919"/>
    </g>
    </symbol>
    <symbol id="point" viewBox="0 0 11 11">
    <g>
      <circle cx="5.5" cy="5.5" r="5.5" fill="#CCD1D9"/>
    </g>
    </symbol>

    <symbol id="phone" viewBox="0 0 30 30">
    <g>
         <g id="Icons" stroke="none" stroke-width="1" fill="none" fill-rule="evenodd">
        <g id="Rounded" transform="translate(-749.000000, -1263.000000)">
            <g id="Communication" transform="translate(100.000000, 1162.000000)">
                <g id="-Round-/-Communication-/-phone" transform="translate(646.000000, 98.000000)">
                    <g>
                        <polygon id="Path" points="0 0 24 0 24 24 0 24"></polygon>
                        <path d="M19.23,15.26 L16.69,14.97 C16.08,14.9 15.48,15.11 15.05,15.54 L13.21,17.38 C10.38,15.94 8.06,13.63 6.62,10.79 L8.47,8.94 C8.9,8.51 9.11,7.91 9.04,7.3 L8.75,4.78 C8.63,3.77 7.78,3.01 6.76,3.01 L5.03,3.01 C3.9,3.01 2.96,3.95 3.03,5.08 C3.56,13.62 10.39,20.44 18.92,20.97 C20.05,21.04 20.99,20.1 20.99,18.97 L20.99,17.24 C21,16.23 20.24,15.38 19.23,15.26 Z" id="🔹Icon-Color" fill="#1D1D1D"></path>
                    </g>
                </g>
            </g>
        </g>
    </g>
    </g>
    </symbol>
    <symbol id="email" viewBox="0 0 30 30">
    <g>
      <g id="Icons" stroke="none" stroke-width="1" fill="none" fill-rule="evenodd">
        <g id="Rounded" transform="translate(-782.000000, -1220.000000)">
            <g id="Communication" transform="translate(100.000000, 1162.000000)">
                <g id="-Round-/-Communication-/-email" transform="translate(680.000000, 54.000000)">
                    <g transform="translate(0.000000, 0.000000)">
                        <polygon id="Path" points="0 0 24 0 24 24 0 24"></polygon>
                        <path d="M20,4 L4,4 C2.9,4 2.01,4.9 2.01,6 L2,18 C2,19.1 2.9,20 4,20 L20,20 C21.1,20 22,19.1 22,18 L22,6 C22,4.9 21.1,4 20,4 Z M19.6,8.25 L12.53,12.67 C12.21,12.87 11.79,12.87 11.47,12.67 L4.4,8.25 C4.15,8.09 4,7.82 4,7.53 C4,6.86 4.73,6.46 5.3,6.81 L12,11 L18.7,6.81 C19.27,6.46 20,6.86 20,7.53 C20,7.82 19.85,8.09 19.6,8.25 Z" id="🔹Icon-Color" fill="#1D1D1D"></path>
                    </g>
                </g>
            </g>
        </g>
    </g>
    </g>
    </symbol>
    <symbol id="point" viewBox="0 0 11 11">
    <g>


    </g>
    </symbol>
</svg>