<svg width="33" height="33" viewBox="0 0 33 33" fill="none" xmlns="http://www.w3.org/2000/svg">
<circle opacity="0.16" cx="16.5" cy="16.5" r="16.5" fill="#AAB2BD"/>
<path fill-rule="evenodd" clip-rule="evenodd" d="M22.5332 24.3989C22.222 24.7237 21.7484 24.886 21.1124 24.886H11.8876C11.2584 24.886 10.7865 24.7237 10.4719 24.3989C10.1573 24.0742 10 23.5701 10 22.8868V15.7627C10 15.0861 10.1844 14.5872 10.5531 14.2658C10.7989 14.0516 11.1041 13.9087 11.4687 13.8373L11.5624 13.8231L11.5628 11.3888C11.5628 10.4822 11.6998 9.6923 11.9738 9.01913C12.2479 8.34595 12.6183 7.7861 13.0851 7.33958C13.5519 6.89305 14.0796 6.55816 14.6682 6.33489C15.2568 6.11163 15.8691 6 16.5051 6C17.1343 6 17.7432 6.11163 18.3318 6.33489C18.9204 6.55816 19.4498 6.89305 19.92 7.33958C20.3902 7.7861 20.7606 8.34595 21.0312 9.01913C21.3018 9.6923 21.4372 10.4822 21.4372 11.3888L21.4365 13.7798L21.4745 13.783C21.9313 13.8349 22.2842 13.9908 22.5332 14.2506C22.8444 14.5753 23 15.0794 23 15.7627V22.8868C23 23.5701 22.8444 24.0742 22.5332 24.3989ZM13.2678 11.1959L13.2676 13.7816L19.7322 13.7677L19.7322 11.1959C19.7322 10.4247 19.5851 9.77348 19.2908 9.24239C18.9965 8.71129 18.6041 8.31043 18.1136 8.03981C17.6231 7.76919 17.0869 7.63388 16.5051 7.63388C15.9232 7.63388 15.3871 7.76919 14.8966 8.03981C14.4061 8.31043 14.012 8.71129 13.7143 9.24239C13.4166 9.77348 13.2678 10.4247 13.2678 11.1959Z" fill="#1A1919"/>
</svg>
