<svg width="62" height="65" viewBox="0 0 62 65" fill="none" xmlns="http://www.w3.org/2000/svg">
<path fill-rule="evenodd" clip-rule="evenodd" d="M57.2919 7.76302C56.043 7.84236 55.074 8.40676 55.074 9.09242L54.9323 14.1494H54.4677V14.8498H54.9119L54.7759 19.7186H54.1651V20.6014H54.751L54.598 26.0505C54.3407 26.0131 54.0585 25.9916 53.7605 25.9916L53.6313 25.9961L54.156 9.97529C54.2716 8.11776 54.8904 7.78569 56.1654 7.26662C56.3592 7.18729 56.5326 7.14762 56.6799 7.14762C57.2239 7.14762 57.2919 7.75169 57.2919 7.75282V7.76302ZM45.4996 21.4911H45.0791V22.1258H45.4815L45.3579 26.5367H44.8049V27.3357H45.3353L45.197 32.2725C44.9635 32.2385 44.7074 32.2192 44.4377 32.2192C44.296 32.2192 44.1589 32.2249 44.0263 32.2351L44.4966 17.9064C44.6031 16.1735 45.2389 15.9151 46.2907 15.4867C46.4618 15.4176 46.6148 15.3824 46.744 15.3824C47.0534 15.3824 47.1803 15.6046 47.2325 15.7576C46.3054 15.9117 45.6277 16.3673 45.6277 16.9113L45.4996 21.4911ZM36.9758 38.4537L37.4031 25.3954C37.4983 23.8518 38.0649 23.6229 39.0022 23.241C39.1529 23.1798 39.2867 23.1492 39.3989 23.1492C39.7955 23.1492 39.8397 23.5844 39.8397 23.5844L39.8409 23.6728C38.9376 23.7861 38.2633 24.2145 38.2633 24.729L38.1477 28.834H37.7714V29.4029H38.1318L38.0207 33.3548H37.5255V34.0711H38.0003L37.8768 38.4945C37.6683 38.4639 37.4382 38.4469 37.1968 38.4469L36.9758 38.4537ZM2.77407 14.6197L6.77021 16.9691V27.891C6.77021 37.6694 8.12227 39.7344 15.0447 43.8042C15.7836 44.2382 19.9463 46.6862 22.7559 48.3386C26.9594 50.8093 30.22 53.7038 30.254 61.8876L2.77407 45.7297V14.6197ZM61.6303 38.2848H60.9356L60.6704 28.8272H61.3277V27.7641H60.6409L60.4392 20.6014H61.0251V19.7186H60.4143L60.2783 14.8498H60.7225V14.1494H60.2579L60.1162 9.09242C60.1162 8.40676 59.1472 7.84236 57.8983 7.76302V7.75282C57.8983 7.42869 57.6093 6.54129 56.6799 6.54129C56.4533 6.54129 56.2039 6.59682 55.9376 6.70449C54.5413 7.27229 53.6857 7.77322 53.5508 9.94582L53.0238 26.0392C52.2203 26.1412 51.6457 26.403 51.6457 26.7124L51.4179 31.9416H50.6325V32.6431H51.3873L51.1447 38.1806H50.5724V39.0612H51.1062L50.8421 45.0882C50.2403 44.0082 49.0877 43.2772 47.764 43.2772C47.2087 43.2772 46.6851 43.4086 46.2181 43.6376L46.3099 41.5602H45.8011V40.7204H46.3462L46.5774 35.4436H45.8589V34.776H46.6057L46.8245 29.7928C46.8245 29.4131 47.7255 29.1048 48.8384 29.1048C49.1229 29.1048 49.3915 29.1252 49.6363 29.1615L49.7825 23.9686H49.2249V23.1276H49.8063L49.9366 18.4878H49.5127V17.8202H49.9559L49.9944 16.4172C49.6385 15.9933 48.8418 15.6964 47.9113 15.6964L47.8445 15.7009C47.7595 15.336 47.458 14.7761 46.744 14.7761C46.5366 14.7761 46.3077 14.826 46.0629 14.9257C44.7924 15.4414 44.0138 15.8981 43.8903 17.8769L43.4177 32.3212C42.8816 32.4368 42.5223 32.6397 42.5223 32.872L42.3161 37.6094H41.6043V38.2452H42.2877L42.069 43.2602H41.5499V44.0592H42.0339L41.8684 47.8241C41.0003 46.888 39.7638 46.2998 38.3857 46.2998C38.1941 46.2998 38.0049 46.3145 37.819 46.3372V45.8011H38.3109L38.5183 41.0456H37.8711V40.4438H38.5455L38.7415 35.9524C38.7415 35.7598 39.0045 35.5898 39.4091 35.4764L39.6505 35.4186L39.6788 35.413L39.9179 35.3744L40.0301 35.362L40.2194 35.3438C40.3293 35.337 40.4415 35.3325 40.5571 35.3325C40.8121 35.3325 41.0558 35.3506 41.2768 35.3835L41.4083 30.7028H40.9051V29.9458H41.4287L41.5465 25.7649H41.1646V25.162H41.5635L41.5987 23.8926C41.2791 23.7544 40.8835 23.6637 40.4461 23.649V23.5844C40.4461 23.3056 40.1979 22.5428 39.3989 22.5428C39.2085 22.5428 38.9977 22.5893 38.7744 22.68C37.6184 23.1492 36.9089 23.564 36.7979 25.366L36.3672 38.5228C35.8402 38.6226 35.4809 38.8118 35.4809 39.0317L35.2951 43.2772H34.6581V43.8461H35.2701L35.1047 47.6178C34.5482 48.1494 34.1209 48.8135 33.8727 49.5604C33.4659 49.09 32.9921 48.6798 32.4674 48.3398L32.5422 46.6466H31.9653V46.1105H32.566L32.7405 42.1121C32.7405 41.8072 33.4636 41.5602 34.3567 41.5602C34.5845 41.5602 34.8009 41.5772 34.997 41.6055L35.1149 37.4382H34.6661V36.7639H35.133L35.2373 33.0409H34.8984V32.5048H35.2531L35.32 30.3685C34.0325 32.1297 32.4368 35.4934 31.5256 38.4718V24.3641C31.5256 18.0129 29.9967 14.818 25.3931 12.2318C22.4306 10.568 16.7458 8.28322 14.4225 6.99122C10.3787 4.74269 8.70027 3.07782 7.48647 0.687622L6.77021 0.793022V14.4293L0.584473 10.7913V46.982L31.1289 64.942V64.9408L61.1883 47.262L60.9775 39.7865L60.9707 39.5281H61.6303V38.2848Z" fill="#FFFFFE"/>
</svg>
