<svg width="218" height="43" viewBox="0 0 218 43" fill="none" xmlns="http://www.w3.org/2000/svg">
<path fill-rule="evenodd" clip-rule="evenodd" d="M5.11108 39.0606C4.71668 39.9775 4.08202 40.696 2.99515 40.696H1.95248V39.3292H2.67102C3.27735 39.3292 3.61622 39.0606 3.84175 38.5246L4.19535 37.7063L0.935883 30.6536H2.54408L4.94222 36.0278L7.10008 30.6536H8.70828L5.11108 39.0606Z" fill="#FFFFFE"/>
<path fill-rule="evenodd" clip-rule="evenodd" d="M15.0821 40.696V36.7611C14.5041 36.8744 13.3753 37.0852 12.3882 37.0852C11.0622 37.0852 9.77814 36.395 9.77814 34.618V30.6536H11.3161V34.2508C11.3161 35.4079 12.0357 35.7184 12.8529 35.7184C13.5159 35.7184 14.5597 35.5484 15.0821 35.4351V30.6536H16.6053V40.696H15.0821Z" fill="#FFFFFE"/>
<path fill-rule="evenodd" clip-rule="evenodd" d="M19.2267 40.696V30.6536H25.6584V32.0215H20.7499V34.9557H24.924V36.31H20.7499V39.3292H25.6584V40.696H19.2267Z" fill="#FFFFFE"/>
<path fill-rule="evenodd" clip-rule="evenodd" d="M31.5382 35.9712H29.2534V39.3292H31.5382C32.6386 39.3292 33.2869 38.6934 33.2869 37.6496C33.2869 36.6206 32.6386 35.9712 31.5382 35.9712ZM31.6368 40.696H27.7302V30.6536H34.1902V32.0215H29.2534V34.6032H31.6368C33.5838 34.6032 34.8101 35.8442 34.8101 37.6496C34.8101 39.455 33.5963 40.696 31.6368 40.696Z" fill="#FFFFFE"/>
<path fill-rule="evenodd" clip-rule="evenodd" d="M42.5519 40.696V36.31H38.49V40.696H36.9668V30.6536H38.49V34.9557H42.5519V30.6536H44.0898V40.696H42.5519Z" fill="#FFFFFE"/>
<path fill-rule="evenodd" clip-rule="evenodd" d="M54.9483 40.696H56.4703V30.6536H54.9483V40.696ZM50.4206 35.9712H48.2197V39.3292H50.4206C51.5347 39.3292 52.1977 38.6934 52.1977 37.6496C52.1977 36.6206 51.5347 35.9712 50.4206 35.9712ZM50.5475 40.696H46.6965V30.6536H48.2197V34.6032H50.5475C52.4651 34.6032 53.7345 35.8442 53.7345 37.6496C53.7345 39.455 52.4515 40.696 50.5475 40.696Z" fill="#FFFFFE"/>
<path fill-rule="evenodd" clip-rule="evenodd" d="M62.8023 30.0619C61.6599 30.0619 60.7 29.5678 60.6297 28.1715H61.7721C61.8288 28.8198 62.2096 29.1303 62.8023 29.1303C63.395 29.1303 63.7747 28.8198 63.8325 28.1715H64.9738C64.9035 29.5678 63.9447 30.0619 62.8023 30.0619ZM64.9738 40.696V33.4052L60.4744 40.696H59.0929V30.6535H60.6161V37.9329L65.1018 30.6535H66.497V40.696H64.9738Z" fill="#FFFFFE"/>
<path fill-rule="evenodd" clip-rule="evenodd" d="M79.3161 42.9536V40.696H72.5036V30.6536H74.0268V39.3292H78.0887V30.6536H79.6119V39.3292H80.7973V42.9536H79.3161Z" fill="#FFFFFE"/>
<path fill-rule="evenodd" clip-rule="evenodd" d="M82.5869 40.696V30.6536H89.0186V32.0215H84.1101V34.9557H88.2842V36.31H84.1101V39.3292H89.0186V40.696H82.5869Z" fill="#FFFFFE"/>
<path fill-rule="evenodd" clip-rule="evenodd" d="M96.6754 40.696V36.31H92.6135V40.696H91.0892V30.6536H92.6135V34.9557H96.6754V30.6536H98.2133V40.696H96.6754Z" fill="#FFFFFE"/>
<path fill-rule="evenodd" clip-rule="evenodd" d="M104.219 32.0215V40.696H102.696V32.0215H99.9314V30.6536H106.983V32.0215H104.219Z" fill="#FFFFFE"/>
<path fill-rule="evenodd" clip-rule="evenodd" d="M112.426 32.0215H110.24V35.3796H112.426C113.527 35.3796 114.218 34.7302 114.218 33.7011C114.218 32.6562 113.527 32.0215 112.426 32.0215ZM112.526 36.7475H110.24V40.696H108.717V30.6536H112.526C114.429 30.6536 115.741 31.8957 115.741 33.7011C115.741 35.5065 114.429 36.7475 112.526 36.7475Z" fill="#FFFFFE"/>
<path fill-rule="evenodd" clip-rule="evenodd" d="M5.87948 11.8345V15.6176C7.04002 15.6176 8.28328 15.6176 9.41435 15.6176C10.7947 15.6176 11.4589 14.6509 11.4589 13.7113C11.4589 12.7174 10.7675 11.8345 9.41435 11.8345H5.87948ZM5.87948 7.63667H9.44155C14.1097 7.63667 16.3741 10.2875 16.3741 13.6841C16.3741 17.1091 14.0553 20.0365 9.44155 20.0365H0.935883V0.7052H14.8271V5.12407H5.87948V7.63667Z" fill="#FFFFFE"/>
<path fill-rule="evenodd" clip-rule="evenodd" d="M24.7665 13.4087H28.7706L26.7544 8.74052L24.7665 13.4087ZM23.1368 17.6338L22.0306 20.0365H16.7584V19.3463L25.6233 0.510254H27.9421L36.7243 19.3463V20.0365H31.5053L30.372 17.6338H23.1368Z" fill="#FFFFFE"/>
<path fill-rule="evenodd" clip-rule="evenodd" d="M38.4889 0.7052H43.5424V15.4793H48.2095V0.7052H53.263V15.4793H57.9312V0.7052H62.9848V20.0365H38.4889V0.7052Z" fill="#FFFFFE"/>
<path fill-rule="evenodd" clip-rule="evenodd" d="M78.168 20.0365V12.3037H72.1761V20.0365H67.1214V0.7052H72.1761V7.69107H78.168V0.7052H83.2227V20.0365H78.168Z" fill="#FFFFFE"/>
<path fill-rule="evenodd" clip-rule="evenodd" d="M99.4294 5.09573H92.414V7.85767H98.8774V12.2765H92.414V15.4238H99.6787V20.0365H87.3616V0.7052H99.4294V5.09573Z" fill="#FFFFFE"/>
<path fill-rule="evenodd" clip-rule="evenodd" d="M115.446 6.77987V13.9335C117.488 13.7952 119.56 13.105 119.56 10.3431C119.56 7.58 117.6 6.86374 115.446 6.77987ZM110.889 13.9335V6.77987C108.735 6.86374 106.773 7.58 106.773 10.3431C106.773 13.105 108.872 13.7952 110.889 13.9335ZM110.832 18.1857C105.834 18.0203 101.72 15.5065 101.72 10.3431C101.72 5.17847 105.834 2.63754 110.805 2.44487V0.621338H115.527V2.44487C120.665 2.63754 124.614 4.90194 124.614 10.3431C124.614 15.7831 120.498 18.0203 115.5 18.1857V20.0909H110.832V18.1857Z" fill="#FFFFFE"/>
<path fill-rule="evenodd" clip-rule="evenodd" d="M125.768 5.12407V0.7052H140.13V5.12407H135.407V20.0365H130.519V5.12407H125.768Z" fill="#FFFFFE"/>
<path fill-rule="evenodd" clip-rule="evenodd" d="M154.793 5.09573H147.777V7.85767H154.241V12.2765H147.777V15.4238H155.04V20.0365H142.723V0.7052H154.793V5.09573Z" fill="#FFFFFE"/>
<path fill-rule="evenodd" clip-rule="evenodd" d="M166.056 5.97973L169.177 0.7052H174.617V1.4498L169.04 9.79L175.28 19.3179V20.0365H169.646L166.084 13.989H165.919L162.384 20.0365H156.694V19.3179L162.963 9.79L157.356 1.4498V0.7052H162.826L165.946 5.97973H166.056Z" fill="#FFFFFE"/>
<path fill-rule="evenodd" clip-rule="evenodd" d="M179.089 20.0909H177.596V0.705205H182.651V10.1493L192.732 0.621338H194.305V20.0365H189.252V10.0665L179.089 20.0909Z" fill="#FFFFFE"/>
<path fill-rule="evenodd" clip-rule="evenodd" d="M215.567 0.64856H217.362V20.0365H212.307V11.116L208.192 15.4238H207.613L203.497 11.116V20.0365H198.444V0.64856H200.238L207.915 9.01709L215.567 0.64856Z" fill="#FFFFFE"/>
</svg>
