<svg width="48" height="48" viewBox="0 0 48 48" fill="none" xmlns="http://www.w3.org/2000/svg">
<circle opacity="0.16" cx="24" cy="24" r="24" fill="#AAB2BD"/>
<path fill-rule="evenodd" clip-rule="evenodd" d="M33.3203 34.0176C33.1016 34.1465 32.8516 34.2109 32.5703 34.2109C32.3828 34.2109 32.1992 34.1758 32.0195 34.1055L31.8884 34.0461C31.761 33.9802 31.6445 33.8945 31.5391 33.7891L26.4893 28.7502L26.2873 28.8871C25.8731 29.1546 25.4342 29.3882 24.9707 29.5879C23.9277 30.0371 22.8125 30.2617 21.625 30.2617C20.4375 30.2617 19.3223 30.0371 18.2793 29.5879C17.2363 29.1387 16.3184 28.5176 15.5254 27.7246C14.7324 26.9316 14.1133 26.0156 13.668 24.9766C13.2227 23.9375 13 22.8242 13 21.6367C13 20.4414 13.2227 19.3242 13.668 18.2852C14.1133 17.2461 14.7344 16.3301 15.5312 15.5371C16.3281 14.7441 17.2461 14.123 18.2852 13.6738C19.3242 13.2246 20.4375 13 21.625 13C22.8125 13 23.9277 13.2246 24.9707 13.6738C26.0137 14.123 26.9316 14.7441 27.7246 15.5371C28.5176 16.3301 29.1367 17.248 29.582 18.291C30.0273 19.334 30.25 20.4492 30.25 21.6367C30.25 22.8242 30.0273 23.9375 29.582 24.9766L29.4272 25.3184C29.2121 25.768 28.9627 26.1934 28.6789 26.5944L28.5943 26.7092L33.6016 31.7266C33.7422 31.8672 33.8457 32.0273 33.9121 32.207C33.9785 32.3867 34.0117 32.5703 34.0117 32.7578C34.0117 33.0312 33.9512 33.2773 33.8301 33.4961C33.709 33.7148 33.5391 33.8887 33.3203 34.0176ZM19.0996 27.6543C19.8926 27.9941 20.7344 28.1641 21.625 28.1641C22.5234 28.1641 23.3672 27.9941 24.1562 27.6543C24.9453 27.3145 25.6387 26.8418 26.2363 26.2363C26.834 25.6309 27.3027 24.9355 27.6426 24.1504C27.9824 23.3652 28.1523 22.5273 28.1523 21.6367C28.1523 20.7383 27.9824 19.8945 27.6426 19.1055C27.3027 18.3164 26.834 17.623 26.2363 17.0254C25.6387 16.4277 24.9453 15.957 24.1562 15.6133C23.3672 15.2695 22.5234 15.0977 21.625 15.0977C20.7344 15.0977 19.8926 15.2695 19.0996 15.6133C18.3066 15.957 17.6113 16.4277 17.0137 17.0254C16.416 17.623 15.9473 18.3164 15.6074 19.1055C15.2676 19.8945 15.0977 20.7383 15.0977 21.6367C15.0977 22.5273 15.2676 23.3652 15.6074 24.1504C15.9473 24.9355 16.416 25.6309 17.0137 26.2363C17.6113 26.8418 18.3066 27.3145 19.0996 27.6543Z" fill="#1A1919"/>
</svg>
